<svg id="_7x7" data-name="7x7" xmlns="http://www.w3.org/2000/svg" viewBox="0 0 24 24">
  <rect x="2" y="2" width="2.46" height="2.46" rx=".52" ry=".52"/>
  <rect x="4.92" y="2" width="2.46" height="2.46" rx=".52" ry=".52"/>
  <rect x="7.85" y="2" width="2.46" height="2.46" rx=".52" ry=".52"/>
  <rect x="10.77" y="2" width="2.46" height="2.46" rx=".52" ry=".52"/>
  <rect x="13.69" y="2" width="2.46" height="2.46" rx=".52" ry=".52"/>
  <rect x="16.62" y="2" width="2.46" height="2.46" rx=".52" ry=".52"/>
  <rect x="19.54" y="2" width="2.46" height="2.46" rx=".52" ry=".52"/>
  <rect x="2" y="4.92" width="2.46" height="2.46" rx=".52" ry=".52"/>
  <rect x="4.92" y="4.92" width="2.46" height="2.46" rx=".52" ry=".52"/>
  <rect x="7.85" y="4.92" width="2.46" height="2.46" rx=".52" ry=".52"/>
  <rect x="10.77" y="4.92" width="2.46" height="2.46" rx=".52" ry=".52"/>
  <rect x="13.69" y="4.92" width="2.46" height="2.46" rx=".52" ry=".52"/>
  <rect x="16.62" y="4.92" width="2.46" height="2.46" rx=".52" ry=".52"/>
  <rect x="19.54" y="4.92" width="2.46" height="2.46" rx=".52" ry=".52"/>
  <rect x="2" y="7.85" width="2.46" height="2.46" rx=".52" ry=".52"/>
  <rect x="4.92" y="7.85" width="2.46" height="2.46" rx=".52" ry=".52"/>
  <rect x="7.85" y="7.85" width="2.46" height="2.46" rx=".52" ry=".52"/>
  <rect x="10.77" y="7.85" width="2.46" height="2.46" rx=".52" ry=".52"/>
  <rect x="13.69" y="7.85" width="2.46" height="2.46" rx=".52" ry=".52"/>
  <rect x="16.62" y="7.85" width="2.46" height="2.46" rx=".52" ry=".52"/>
  <rect x="19.54" y="7.85" width="2.46" height="2.46" rx=".52" ry=".52"/>
  <rect x="2" y="10.77" width="2.46" height="2.46" rx=".52" ry=".52"/>
  <rect x="4.92" y="10.77" width="2.46" height="2.46" rx=".52" ry=".52"/>
  <rect x="7.85" y="10.77" width="2.46" height="2.46" rx=".52" ry=".52"/>
  <rect x="10.77" y="10.77" width="2.46" height="2.46" rx=".52" ry=".52"/>
  <rect x="13.69" y="10.77" width="2.46" height="2.46" rx=".52" ry=".52"/>
  <rect x="16.62" y="10.77" width="2.46" height="2.46" rx=".52" ry=".52"/>
  <rect x="19.54" y="10.77" width="2.46" height="2.46" rx=".52" ry=".52"/>
  <rect x="2" y="13.69" width="2.46" height="2.46" rx=".52" ry=".52"/>
  <rect x="4.92" y="13.69" width="2.46" height="2.46" rx=".52" ry=".52"/>
  <rect x="7.85" y="13.69" width="2.46" height="2.46" rx=".52" ry=".52"/>
  <rect x="10.77" y="13.69" width="2.46" height="2.46" rx=".52" ry=".52"/>
  <rect x="13.69" y="13.69" width="2.46" height="2.46" rx=".52" ry=".52"/>
  <rect x="16.62" y="13.69" width="2.46" height="2.46" rx=".52" ry=".52"/>
  <rect x="19.54" y="13.69" width="2.46" height="2.46" rx=".52" ry=".52"/>
  <rect x="2" y="16.62" width="2.46" height="2.46" rx=".52" ry=".52"/>
  <rect x="4.92" y="16.62" width="2.46" height="2.46" rx=".52" ry=".52"/>
  <rect x="7.85" y="16.62" width="2.46" height="2.46" rx=".52" ry=".52"/>
  <rect x="10.77" y="16.62" width="2.46" height="2.46" rx=".52" ry=".52"/>
  <rect x="13.69" y="16.62" width="2.46" height="2.46" rx=".52" ry=".52"/>
  <rect x="16.62" y="16.62" width="2.46" height="2.46" rx=".52" ry=".52"/>
  <rect x="19.54" y="16.62" width="2.46" height="2.46" rx=".52" ry=".52"/>
  <rect x="2" y="19.54" width="2.46" height="2.46" rx=".52" ry=".52"/>
  <rect x="4.92" y="19.54" width="2.46" height="2.46" rx=".52" ry=".52"/>
  <rect x="7.85" y="19.54" width="2.46" height="2.46" rx=".52" ry=".52"/>
  <rect x="10.77" y="19.54" width="2.46" height="2.46" rx=".52" ry=".52"/>
  <rect x="13.69" y="19.54" width="2.46" height="2.46" rx=".52" ry=".52"/>
  <rect x="16.62" y="19.54" width="2.46" height="2.46" rx=".52" ry=".52"/>
  <rect x="19.54" y="19.54" width="2.46" height="2.46" rx=".52" ry=".52"/>
</svg>
