<svg id="_5x5" data-name="5x5" xmlns="http://www.w3.org/2000/svg" viewBox="0 0 24 24">
  <rect x="3" y="3" width="3.15" height="3.15" rx=".8" ry=".8"/>
  <rect x="6.71" y="3" width="3.15" height="3.15" rx=".8" ry=".8"/>
  <rect x="10.42" y="3" width="3.15" height="3.15" rx=".8" ry=".8"/>
  <rect x="14.14" y="3" width="3.15" height="3.15" rx=".8" ry=".8"/>
  <rect x="17.85" y="3" width="3.15" height="3.15" rx=".8" ry=".8"/>
  <rect x="3" y="6.71" width="3.15" height="3.15" rx=".8" ry=".8"/>
  <rect x="6.71" y="6.71" width="3.15" height="3.15" rx=".8" ry=".8"/>
  <rect x="10.42" y="6.71" width="3.15" height="3.15" rx=".8" ry=".8"/>
  <rect x="14.14" y="6.71" width="3.15" height="3.15" rx=".8" ry=".8"/>
  <rect x="17.85" y="6.71" width="3.15" height="3.15" rx=".8" ry=".8"/>
  <rect x="3" y="10.42" width="3.15" height="3.15" rx=".8" ry=".8"/>
  <rect x="6.71" y="10.42" width="3.15" height="3.15" rx=".8" ry=".8"/>
  <rect x="10.43" y="10.42" width="3.15" height="3.15" rx=".8" ry=".8"/>
  <rect x="14.14" y="10.42" width="3.15" height="3.15" rx=".8" ry=".8"/>
  <rect x="17.85" y="10.42" width="3.15" height="3.15" rx=".8" ry=".8"/>
  <rect x="3" y="14.14" width="3.15" height="3.15" rx=".8" ry=".8"/>
  <rect x="6.71" y="14.14" width="3.15" height="3.15" rx=".8" ry=".8"/>
  <rect x="10.43" y="14.14" width="3.15" height="3.15" rx=".8" ry=".8"/>
  <rect x="14.14" y="14.14" width="3.15" height="3.15" rx=".8" ry=".8"/>
  <rect x="17.85" y="14.14" width="3.15" height="3.15" rx=".8" ry=".8"/>
  <rect x="3" y="17.85" width="3.15" height="3.15" rx=".8" ry=".8"/>
  <rect x="6.71" y="17.85" width="3.15" height="3.15" rx=".8" ry=".8"/>
  <rect x="10.43" y="17.85" width="3.15" height="3.15" rx=".8" ry=".8"/>
  <rect x="14.14" y="17.85" width="3.15" height="3.15" rx=".8" ry=".8"/>
  <rect x="17.85" y="17.85" width="3.15" height="3.15" rx=".8" ry=".8"/>
</svg>
