<svg id="fmc" xmlns="http://www.w3.org/2000/svg" viewBox="0 0 24 24">
  <defs>
    <style>
      .cls-1 {
        fill-rule: evenodd;
      }
    </style>
  </defs>
  <path class="cls-1" d="M11.95,15.69c1.07-2.94,2.13-5.86,3.2-8.8,1.48,.02,2.79,.5,3.94,1.43-1.07,2.93-2.13,5.85-3.19,8.79-1.2-.79-2.51-1.27-3.95-1.42Z"/>
  <path class="cls-1" d="M15.54,5.75c.16-.44,.32-.87,.48-1.29,.02-.05,.06-.1,.11-.12,.5-.2,1.01-.34,1.56-.35,.77-.02,1.32,.38,1.77,.96,.19,.25,.35,.52,.52,.79,.02,.04,.04,.09,.02,.13-.15,.43-.31,.86-.48,1.31-1.21-.8-2.53-1.27-3.98-1.43Z"/>
  <path class="cls-1" d="M12.61,20c-.03-.07-.05-.11-.07-.16-.37-.8-.75-1.61-1.12-2.41-.05-.12,0-.5,.1-.58,.03-.03,.09-.03,.13-.03,1.4,.04,2.64,.5,3.74,1.36,.08,.06,.09,.11,.06,.21-.06,.26-.21,.4-.46,.51-.79,.35-1.58,.73-2.39,1.1Z"/>
  <rect x="4" y="4" width="4.8" height="4.8" rx="1.2" ry="1.2"/>
  <rect x="4.02" y="9.6" width="4.8" height="4.8" rx="1.2" ry="1.2"/>
  <rect x="4.03" y="15.2" width="4.8" height="4.8" rx="1.2" ry="1.2"/>
</svg>
