<svg xmlns="http://www.w3.org/2000/svg" viewBox="0 0 24 24"><path d="M20.06 12c.21-3.22 3.11-8-2.47-8-4.67 0-4.99 4.04-4.99 8 0 3.57.17 7.85 4.48 8 6.01.21 3.21-4.41 2.98-8Z"/><rect width="1.6" height="1.6" x="3.18" y="7.03" rx=".4" ry=".4" transform="rotate(-45 3.983 7.83)"/><rect width="1.6" height="1.6" x="4.5" y="5.72" rx=".4" ry=".4" transform="rotate(-45 5.29 6.519)"/><rect width="1.6" height="1.6" x="5.81" y="4.4" rx=".4" ry=".4" transform="rotate(-45 6.614 5.2)"/><rect width="1.6" height="1.6" x="4.5" y="8.35" rx=".4" ry=".4" transform="rotate(-45 5.307 9.142)"/><rect width="1.6" height="1.6" x="5.82" y="7.03" rx=".4" ry=".4" transform="rotate(-45 6.626 7.836)"/><rect width="1.6" height="1.6" x="7.14" y="5.71" rx=".4" ry=".4" transform="rotate(-45 7.937 6.512)"/><rect width="1.6" height="1.6" x="5.83" y="9.67" rx=".4" ry=".4" transform="rotate(-45 6.625 10.466)"/><rect width="1.6" height="1.6" x="7.14" y="8.35" rx=".4" ry=".4" transform="rotate(-45 7.949 9.147)"/><rect width="1.6" height="1.6" x="8.46" y="7.03" rx=".4" ry=".4" transform="rotate(-45 9.256 7.836)"/><rect width="1.6" height="1.6" x="3.17" y="15.38" rx=".4" ry=".4" transform="rotate(-45 3.962 16.18)"/><rect width="1.6" height="1.6" x="4.48" y="14.06" rx=".4" ry=".4" transform="rotate(-45 5.285 14.86)"/><rect width="1.6" height="1.6" x="5.8" y="12.74" rx=".4" ry=".4" transform="rotate(-45 6.597 13.537)"/><rect width="1.6" height="1.6" x="4.49" y="16.69" rx=".4" ry=".4" transform="rotate(-45 5.285 17.49)"/><rect width="1.6" height="1.6" x="5.81" y="15.37" rx=".4" ry=".4" transform="rotate(-45 6.609 16.173)"/><rect width="1.6" height="1.6" x="7.12" y="14.06" rx=".4" ry=".4" transform="rotate(-45 7.916 14.861)"/><rect width="1.6" height="1.6" x="5.81" y="18.01" rx=".4" ry=".4" transform="rotate(-45 6.608 18.803)"/><rect width="1.6" height="1.6" x="7.13" y="16.69" rx=".4" ry=".4" transform="rotate(-45 7.927 17.496)"/><rect width="1.6" height="1.6" x="8.45" y="15.38" rx=".4" ry=".4" transform="rotate(-45 9.251 16.178)"/></svg>