<svg id="skewb" xmlns="http://www.w3.org/2000/svg" viewBox="0 0 24 24">
  <path d="M12.21,4.7l7.08,7.09c.12,.12,.12,.31,0,.42l-7.08,7.09c-.12,.12-.31,.12-.42,0l-7.08-7.09c-.12-.12-.12-.31,0-.42l7.08-7.09c.12-.12,.31-.12,.42,0Z"/>
  <path d="M5.2,4h6.05l-7.25,7.26V5.2c0-.66,.54-1.2,1.2-1.2Z"/>
  <path d="M4,18.8v-6.06l7.25,7.26H5.2c-.66,0-1.2-.54-1.2-1.2Z"/>
  <path d="M18.8,20h-6.05l7.25-7.26v6.06c0,.66-.54,1.2-1.2,1.2Z"/>
  <path d="M20,5.2v6.06l-7.25-7.26h6.05c.66,0,1.2,.54,1.2,1.2Z"/>
</svg>
