<svg xmlns="http://www.w3.org/2000/svg" data-name="6x6" viewBox="0 0 24 24"><rect width="2.87" height="2.87" x="1.97" y="2.03" rx=".65" ry=".65"/><rect width="2.87" height="2.87" x="5.39" y="2.03" rx=".65" ry=".65"/><rect width="2.87" height="2.87" x="8.82" y="2.03" rx=".65" ry=".65"/><rect width="2.87" height="2.87" x="12.24" y="2.03" rx=".65" ry=".65"/><rect width="2.87" height="2.87" x="15.67" y="2.03" rx=".65" ry=".65"/><rect width="2.87" height="2.87" x="19.1" y="2.03" rx=".65" ry=".65"/><rect width="2.87" height="2.87" x="1.97" y="5.46" rx=".65" ry=".65"/><rect width="2.87" height="2.87" x="5.39" y="5.46" rx=".65" ry=".65"/><rect width="2.87" height="2.87" x="8.82" y="5.46" rx=".65" ry=".65"/><rect width="2.87" height="2.87" x="12.24" y="5.46" rx=".65" ry=".65"/><rect width="2.87" height="2.87" x="15.67" y="5.46" rx=".65" ry=".65"/><rect width="2.87" height="2.87" x="19.1" y="5.46" rx=".65" ry=".65"/><rect width="2.87" height="2.87" x="1.97" y="8.88" rx=".65" ry=".65"/><rect width="2.87" height="2.87" x="5.39" y="8.88" rx=".65" ry=".65"/><rect width="2.87" height="2.87" x="8.82" y="8.88" rx=".65" ry=".65"/><rect width="2.87" height="2.87" x="12.24" y="8.88" rx=".65" ry=".65"/><rect width="2.87" height="2.87" x="15.67" y="8.88" rx=".65" ry=".65"/><rect width="2.87" height="2.87" x="19.1" y="8.88" rx=".65" ry=".65"/><rect width="2.87" height="2.87" x="1.97" y="12.31" rx=".65" ry=".65"/><rect width="2.87" height="2.87" x="5.39" y="12.31" rx=".65" ry=".65"/><rect width="2.87" height="2.87" x="8.82" y="12.31" rx=".65" ry=".65"/><rect width="2.87" height="2.87" x="12.24" y="12.31" rx=".65" ry=".65"/><rect width="2.87" height="2.87" x="15.67" y="12.31" rx=".65" ry=".65"/><rect width="2.87" height="2.87" x="19.1" y="12.31" rx=".65" ry=".65"/><rect width="2.87" height="2.87" x="1.97" y="15.73" rx=".65" ry=".65"/><rect width="2.87" height="2.87" x="5.39" y="15.73" rx=".65" ry=".65"/><rect width="2.87" height="2.87" x="8.82" y="15.73" rx=".65" ry=".65"/><rect width="2.87" height="2.87" x="12.24" y="15.73" rx=".65" ry=".65"/><rect width="2.87" height="2.87" x="15.67" y="15.73" rx=".65" ry=".65"/><rect width="2.87" height="2.87" x="19.1" y="15.73" rx=".65" ry=".65"/><rect width="2.87" height="2.87" x="1.97" y="19.16" rx=".65" ry=".65"/><rect width="2.87" height="2.87" x="5.39" y="19.16" rx=".65" ry=".65"/><rect width="2.87" height="2.87" x="8.82" y="19.16" rx=".65" ry=".65"/><rect width="2.87" height="2.87" x="12.24" y="19.16" rx=".65" ry=".65"/><rect width="2.87" height="2.87" x="15.67" y="19.16" rx=".65" ry=".65"/><rect width="2.87" height="2.87" x="19.1" y="19.16" rx=".65" ry=".65"/></svg>