<svg xmlns="http://www.w3.org/2000/svg" id="pyra" viewBox="0 0 24 24"><defs><style>.cls-1{fill-rule:evenodd}</style></defs><g id="Group_51" data-name="Group 51"><path id="Path_135" d="m12.52 4.43 2.19 3.79H9.29l2.19-3.79a.6.6 0 0 1 1.04 0Z" class="cls-1" data-name="Path 135"/><path id="Path_136" d="m5.27 15.19 2.7 4.68H3.61c-.46 0-.75-.5-.52-.9l2.18-3.78Z" class="cls-1" data-name="Path 136"/><path id="Path_137" d="m18.73 15.19 2.18 3.78c.23.4-.06.9-.52.9h-4.36l2.7-4.68Z" class="cls-1" data-name="Path 137"/><path id="Path_138" d="m9.3 19.87 2.7-4.68 2.7 4.68H9.3Z" class="cls-1" data-name="Path 138"/><path id="Path_139" d="M9.3 8.99h5.4L12 13.67 9.3 8.99Z" class="cls-1" data-name="Path 139"/><path id="Path_140" d="m12.67 14.04 2.7-4.68 2.7 4.68h-5.4Z" class="cls-1" data-name="Path 140"/><path id="Path_141" d="m15.36 19.5-2.7-4.67h5.39l-2.7 4.67Z" class="cls-1" data-name="Path 141"/><path id="Path_142" d="M11.33 14.04h-5.4l2.7-4.68 2.7 4.68Z" class="cls-1" data-name="Path 142"/><path id="Path_143" d="M5.94 14.82h5.39l-2.7 4.67-2.7-4.67Z" class="cls-1" data-name="Path 143"/></g></svg>