<svg id="megaminx" xmlns="http://www.w3.org/2000/svg" viewBox="0 0 24 24">
  <defs>
    <style>
      .cls-1 {
        fill-rule: evenodd;
      }
    </style>
  </defs>
  <path class="cls-1" d="M15.49,5.91l-3.49,2.54-3.5-2.54,3.15-2.28c.21-.15,.5-.15,.71,0l3.14,2.28Z"/>
  <polygon class="cls-1" points="11.46 8.85 8.41 11.06 7.08 6.94 7.96 6.31 11.46 8.85"/>
  <path class="cls-1" d="M7.86,11.47l-3.52,2.56-1.21-3.71c-.08-.25,0-.52,.22-.67l3.18-2.31,1.33,4.13Z"/>
  <polygon class="cls-1" points="9.23 15.72 4.89 15.72 4.54 14.65 8.06 12.1 9.23 15.72"/>
  <path class="cls-1" d="M10.77,20.49h-3.89c-.26,0-.49-.17-.57-.41l-1.21-3.72h4.34s1.33,4.13,1.33,4.13Z"/>
  <polygon class="cls-1" points="13.92 16.37 12.59 20.49 11.46 20.49 10.13 16.37 13.92 16.37"/>
  <path class="cls-1" d="M18.9,16.38l-1.21,3.7c-.08,.25-.31,.41-.57,.41h-3.86l1.34-4.12h4.3Z"/>
  <polygon class="cls-1" points="19.46 14.65 19.11 15.72 14.81 15.72 15.98 12.12 19.46 14.65"/>
  <path class="cls-1" d="M20.86,10.32l-1.2,3.7-3.48-2.53,1.34-4.11,3.13,2.27c.21,.15,.3,.42,.22,.67Z"/>
  <polygon class="cls-1" points="16.97 6.98 15.64 11.1 12.55 8.85 16.05 6.31 16.97 6.98"/>
  <polygon class="cls-1" points="15.43 11.73 14.14 15.72 9.92 15.72 8.62 11.7 8.62 11.69 12 9.24 15.43 11.73"/>
</svg>
