<svg id="pyra" xmlns="http://www.w3.org/2000/svg" viewBox="0 0 24 24">
  <defs>
    <style>
      .cls-1 {
        fill-rule: evenodd;
      }
    </style>
  </defs>
  <g id="Group_51" data-name="Group 51">
    <path id="Path_135" data-name="Path 135" class="cls-1" d="M12.52,4.43l2.19,3.79h-5.42l2.19-3.79c.23-.4,.81-.4,1.04,0Z"/>
    <path id="Path_136" data-name="Path 136" class="cls-1" d="M5.27,15.19l2.7,4.68H3.61c-.46,0-.75-.5-.52-.9l2.18-3.78Z"/>
    <path id="Path_137" data-name="Path 137" class="cls-1" d="M18.73,15.19l2.18,3.78c.23,.4-.06,.9-.52,.9h-4.36l2.7-4.68Z"/>
    <path id="Path_138" data-name="Path 138" class="cls-1" d="M9.3,19.87l2.7-4.68,2.7,4.68h-5.4Z"/>
    <path id="Path_139" data-name="Path 139" class="cls-1" d="M9.3,8.99h5.4l-2.7,4.68-2.7-4.68Z"/>
    <path id="Path_140" data-name="Path 140" class="cls-1" d="M12.67,14.04l2.7-4.68,2.7,4.68h-5.4Z"/>
    <path id="Path_141" data-name="Path 141" class="cls-1" d="M15.36,19.5l-2.7-4.67h5.39l-2.7,4.67Z"/>
    <path id="Path_142" data-name="Path 142" class="cls-1" d="M11.33,14.04H5.93l2.7-4.68,2.7,4.68Z"/>
    <path id="Path_143" data-name="Path 143" class="cls-1" d="M5.94,14.82h5.39l-2.7,4.67-2.7-4.67Z"/>
  </g>
</svg>
