<svg id="_3oh" data-name="3oh" xmlns="http://www.w3.org/2000/svg" viewBox="0 0 24 24">
  <defs>
    <style>
      .cls-1 {
        fill-rule: evenodd;
      }
    </style>
  </defs>
  <path class="cls-1" d="M13.95,14.92v-.33c-.59,0-1.17,0-1.75,0-.77,0-1.54,0-2.31,0-.41,0-.73-.29-.82-.69-.07-.37,.12-.77,.48-.92,.14-.06,.3-.08,.45-.08,1.64,0,3.28,0,4.92,0,.37,0,.62,.17,.87,.42,1.01,1,2.05,1.98,3.07,2.97,.14,.14,.28,.29,.44,.42,.25,.19,.33,.42,.32,.74-.02,.81,0,1.62,0,2.43h0c0,.13-.15,.19-.24,.1-.28-.28-.54-.54-.82-.78-.55-.48-1.12-.93-1.68-1.39-.34-.28-.75-.38-1.18-.37-.93,0-1.86,.05-2.79,.06-1.14,0-2.27-.01-3.41,0-.51,0-.92-.18-1.26-.51-1.2-1.17-2.38-2.35-3.56-3.53-.27-.26-.33-.58-.21-.92,.12-.33,.37-.52,.72-.55,.31-.03,.56,.11,.78,.35,.62,.66,1.27,1.3,1.98,1.86,.27,.22,.51,.48,.78,.7,.05,.04,.13,.08,.19,.08,1.66,0,3.32,0,4.98,0,.02,0,.04,0,.07-.02Z"/>
  <g>
    <rect x="7.73" y="4" width="2.39" height="2.39" rx=".6" ry=".6"/>
    <rect x="10.51" y="4" width="2.39" height="2.39" rx=".6" ry=".6"/>
    <rect x="13.29" y="4" width="2.39" height="2.39" rx=".6" ry=".6"/>
    <rect x="7.74" y="6.79" width="2.39" height="2.39" rx=".6" ry=".6"/>
    <rect x="10.52" y="6.79" width="2.39" height="2.39" rx=".6" ry=".6"/>
    <rect x="13.3" y="6.79" width="2.39" height="2.39" rx=".6" ry=".6"/>
    <rect x="7.74" y="9.58" width="2.39" height="2.39" rx=".6" ry=".6"/>
    <rect x="10.52" y="9.58" width="2.39" height="2.39" rx=".6" ry=".6"/>
    <rect x="13.31" y="9.58" width="2.39" height="2.39" rx=".6" ry=".6"/>
  </g>
</svg>
