<svg id="_6x6" data-name="6x6" xmlns="http://www.w3.org/2000/svg" viewBox="0 0 24 24">
  <rect x="1.97" y="2.03" width="2.87" height="2.87" rx=".65" ry=".65"/>
  <rect x="5.39" y="2.03" width="2.87" height="2.87" rx=".65" ry=".65"/>
  <rect x="8.82" y="2.03" width="2.87" height="2.87" rx=".65" ry=".65"/>
  <rect x="12.24" y="2.03" width="2.87" height="2.87" rx=".65" ry=".65"/>
  <rect x="15.67" y="2.03" width="2.87" height="2.87" rx=".65" ry=".65"/>
  <rect x="19.1" y="2.03" width="2.87" height="2.87" rx=".65" ry=".65"/>
  <rect x="1.97" y="5.46" width="2.87" height="2.87" rx=".65" ry=".65"/>
  <rect x="5.39" y="5.46" width="2.87" height="2.87" rx=".65" ry=".65"/>
  <rect x="8.82" y="5.46" width="2.87" height="2.87" rx=".65" ry=".65"/>
  <rect x="12.24" y="5.46" width="2.87" height="2.87" rx=".65" ry=".65"/>
  <rect x="15.67" y="5.46" width="2.87" height="2.87" rx=".65" ry=".65"/>
  <rect x="19.1" y="5.46" width="2.87" height="2.87" rx=".65" ry=".65"/>
  <rect x="1.97" y="8.88" width="2.87" height="2.87" rx=".65" ry=".65"/>
  <rect x="5.39" y="8.88" width="2.87" height="2.87" rx=".65" ry=".65"/>
  <rect x="8.82" y="8.88" width="2.87" height="2.87" rx=".65" ry=".65"/>
  <rect x="12.24" y="8.88" width="2.87" height="2.87" rx=".65" ry=".65"/>
  <rect x="15.67" y="8.88" width="2.87" height="2.87" rx=".65" ry=".65"/>
  <rect x="19.1" y="8.88" width="2.87" height="2.87" rx=".65" ry=".65"/>
  <rect x="1.97" y="12.31" width="2.87" height="2.87" rx=".65" ry=".65"/>
  <rect x="5.39" y="12.31" width="2.87" height="2.87" rx=".65" ry=".65"/>
  <rect x="8.82" y="12.31" width="2.87" height="2.87" rx=".65" ry=".65"/>
  <rect x="12.24" y="12.31" width="2.87" height="2.87" rx=".65" ry=".65"/>
  <rect x="15.67" y="12.31" width="2.87" height="2.87" rx=".65" ry=".65"/>
  <rect x="19.1" y="12.31" width="2.87" height="2.87" rx=".65" ry=".65"/>
  <rect x="1.97" y="15.73" width="2.87" height="2.87" rx=".65" ry=".65"/>
  <rect x="5.39" y="15.73" width="2.87" height="2.87" rx=".65" ry=".65"/>
  <rect x="8.82" y="15.73" width="2.87" height="2.87" rx=".65" ry=".65"/>
  <rect x="12.24" y="15.73" width="2.87" height="2.87" rx=".65" ry=".65"/>
  <rect x="15.67" y="15.73" width="2.87" height="2.87" rx=".65" ry=".65"/>
  <rect x="19.1" y="15.73" width="2.87" height="2.87" rx=".65" ry=".65"/>
  <rect x="1.97" y="19.16" width="2.87" height="2.87" rx=".65" ry=".65"/>
  <rect x="5.39" y="19.16" width="2.87" height="2.87" rx=".65" ry=".65"/>
  <rect x="8.82" y="19.16" width="2.87" height="2.87" rx=".65" ry=".65"/>
  <rect x="12.24" y="19.16" width="2.87" height="2.87" rx=".65" ry=".65"/>
  <rect x="15.67" y="19.16" width="2.87" height="2.87" rx=".65" ry=".65"/>
  <rect x="19.1" y="19.16" width="2.87" height="2.87" rx=".65" ry=".65"/>
</svg>
