<svg xmlns="http://www.w3.org/2000/svg" data-name="7x7" viewBox="0 0 24 24"><rect width="2.46" height="2.46" x="2" y="2" rx=".52" ry=".52"/><rect width="2.46" height="2.46" x="4.92" y="2" rx=".52" ry=".52"/><rect width="2.46" height="2.46" x="7.85" y="2" rx=".52" ry=".52"/><rect width="2.46" height="2.46" x="10.77" y="2" rx=".52" ry=".52"/><rect width="2.46" height="2.46" x="13.69" y="2" rx=".52" ry=".52"/><rect width="2.46" height="2.46" x="16.62" y="2" rx=".52" ry=".52"/><rect width="2.46" height="2.46" x="19.54" y="2" rx=".52" ry=".52"/><rect width="2.46" height="2.46" x="2" y="4.92" rx=".52" ry=".52"/><rect width="2.46" height="2.46" x="4.92" y="4.92" rx=".52" ry=".52"/><rect width="2.46" height="2.46" x="7.85" y="4.92" rx=".52" ry=".52"/><rect width="2.46" height="2.46" x="10.77" y="4.92" rx=".52" ry=".52"/><rect width="2.46" height="2.46" x="13.69" y="4.92" rx=".52" ry=".52"/><rect width="2.46" height="2.46" x="16.62" y="4.92" rx=".52" ry=".52"/><rect width="2.46" height="2.46" x="19.54" y="4.92" rx=".52" ry=".52"/><rect width="2.46" height="2.46" x="2" y="7.85" rx=".52" ry=".52"/><rect width="2.46" height="2.46" x="4.92" y="7.85" rx=".52" ry=".52"/><rect width="2.46" height="2.46" x="7.85" y="7.85" rx=".52" ry=".52"/><rect width="2.46" height="2.46" x="10.77" y="7.85" rx=".52" ry=".52"/><rect width="2.46" height="2.46" x="13.69" y="7.85" rx=".52" ry=".52"/><rect width="2.46" height="2.46" x="16.62" y="7.85" rx=".52" ry=".52"/><rect width="2.46" height="2.46" x="19.54" y="7.85" rx=".52" ry=".52"/><rect width="2.46" height="2.46" x="2" y="10.77" rx=".52" ry=".52"/><rect width="2.46" height="2.46" x="4.92" y="10.77" rx=".52" ry=".52"/><rect width="2.46" height="2.46" x="7.85" y="10.77" rx=".52" ry=".52"/><rect width="2.46" height="2.46" x="10.77" y="10.77" rx=".52" ry=".52"/><rect width="2.46" height="2.46" x="13.69" y="10.77" rx=".52" ry=".52"/><rect width="2.46" height="2.46" x="16.62" y="10.77" rx=".52" ry=".52"/><rect width="2.46" height="2.46" x="19.54" y="10.77" rx=".52" ry=".52"/><rect width="2.46" height="2.46" x="2" y="13.69" rx=".52" ry=".52"/><rect width="2.46" height="2.46" x="4.92" y="13.69" rx=".52" ry=".52"/><rect width="2.46" height="2.46" x="7.85" y="13.69" rx=".52" ry=".52"/><rect width="2.46" height="2.46" x="10.77" y="13.69" rx=".52" ry=".52"/><rect width="2.46" height="2.46" x="13.69" y="13.69" rx=".52" ry=".52"/><rect width="2.46" height="2.46" x="16.62" y="13.69" rx=".52" ry=".52"/><rect width="2.46" height="2.46" x="19.54" y="13.69" rx=".52" ry=".52"/><rect width="2.46" height="2.46" x="2" y="16.62" rx=".52" ry=".52"/><rect width="2.46" height="2.46" x="4.92" y="16.62" rx=".52" ry=".52"/><rect width="2.46" height="2.46" x="7.85" y="16.62" rx=".52" ry=".52"/><rect width="2.46" height="2.46" x="10.77" y="16.62" rx=".52" ry=".52"/><rect width="2.46" height="2.46" x="13.69" y="16.62" rx=".52" ry=".52"/><rect width="2.46" height="2.46" x="16.62" y="16.62" rx=".52" ry=".52"/><rect width="2.46" height="2.46" x="19.54" y="16.62" rx=".52" ry=".52"/><rect width="2.46" height="2.46" x="2" y="19.54" rx=".52" ry=".52"/><rect width="2.46" height="2.46" x="4.92" y="19.54" rx=".52" ry=".52"/><rect width="2.46" height="2.46" x="7.85" y="19.54" rx=".52" ry=".52"/><rect width="2.46" height="2.46" x="10.77" y="19.54" rx=".52" ry=".52"/><rect width="2.46" height="2.46" x="13.69" y="19.54" rx=".52" ry=".52"/><rect width="2.46" height="2.46" x="16.62" y="19.54" rx=".52" ry=".52"/><rect width="2.46" height="2.46" x="19.54" y="19.54" rx=".52" ry=".52"/></svg>