<svg xmlns="http://www.w3.org/2000/svg" id="megaminx" viewBox="0 0 24 24"><defs><style>.cls-1{fill-rule:evenodd}</style></defs><path d="M15.49 5.91 12 8.45 8.5 5.91l3.15-2.28c.21-.15.5-.15.71 0l3.14 2.28ZM11.46 8.85l-3.05 2.21-1.33-4.12.88-.63 3.5 2.54zM7.86 11.47l-3.52 2.56-1.21-3.71c-.08-.25 0-.52.22-.67l3.18-2.31 1.33 4.13ZM9.23 15.72H4.89l-.35-1.07 3.52-2.55 1.17 3.62zM10.77 20.49H6.88c-.26 0-.49-.17-.57-.41L5.1 16.36h4.34l1.33 4.13ZM13.92 16.37l-1.33 4.12h-1.13l-1.33-4.12h3.79zM18.9 16.38l-1.21 3.7c-.08.25-.31.41-.57.41h-3.86l1.34-4.12h4.3ZM19.46 14.65l-.35 1.07h-4.3l1.17-3.6 3.48 2.53zM20.86 10.32l-1.2 3.7-3.48-2.53 1.34-4.11 3.13 2.27c.21.15.3.42.22.67ZM16.97 6.98l-1.33 4.12-3.09-2.25 3.5-2.54.92.67zM15.43 11.73l-1.29 3.99H9.92l-1.3-4.02v-.01L12 9.24l3.43 2.49z" class="cls-1"/></svg>