<svg xmlns="http://www.w3.org/2000/svg" data-name="5x5" viewBox="0 0 24 24"><rect width="3.15" height="3.15" x="3" y="3" rx=".8" ry=".8"/><rect width="3.15" height="3.15" x="6.71" y="3" rx=".8" ry=".8"/><rect width="3.15" height="3.15" x="10.42" y="3" rx=".8" ry=".8"/><rect width="3.15" height="3.15" x="14.14" y="3" rx=".8" ry=".8"/><rect width="3.15" height="3.15" x="17.85" y="3" rx=".8" ry=".8"/><rect width="3.15" height="3.15" x="3" y="6.71" rx=".8" ry=".8"/><rect width="3.15" height="3.15" x="6.71" y="6.71" rx=".8" ry=".8"/><rect width="3.15" height="3.15" x="10.42" y="6.71" rx=".8" ry=".8"/><rect width="3.15" height="3.15" x="14.14" y="6.71" rx=".8" ry=".8"/><rect width="3.15" height="3.15" x="17.85" y="6.71" rx=".8" ry=".8"/><rect width="3.15" height="3.15" x="3" y="10.42" rx=".8" ry=".8"/><rect width="3.15" height="3.15" x="6.71" y="10.42" rx=".8" ry=".8"/><rect width="3.15" height="3.15" x="10.43" y="10.42" rx=".8" ry=".8"/><rect width="3.15" height="3.15" x="14.14" y="10.42" rx=".8" ry=".8"/><rect width="3.15" height="3.15" x="17.85" y="10.42" rx=".8" ry=".8"/><rect width="3.15" height="3.15" x="3" y="14.14" rx=".8" ry=".8"/><rect width="3.15" height="3.15" x="6.71" y="14.14" rx=".8" ry=".8"/><rect width="3.15" height="3.15" x="10.43" y="14.14" rx=".8" ry=".8"/><rect width="3.15" height="3.15" x="14.14" y="14.14" rx=".8" ry=".8"/><rect width="3.15" height="3.15" x="17.85" y="14.14" rx=".8" ry=".8"/><rect width="3.15" height="3.15" x="3" y="17.85" rx=".8" ry=".8"/><rect width="3.15" height="3.15" x="6.71" y="17.85" rx=".8" ry=".8"/><rect width="3.15" height="3.15" x="10.43" y="17.85" rx=".8" ry=".8"/><rect width="3.15" height="3.15" x="14.14" y="17.85" rx=".8" ry=".8"/><rect width="3.15" height="3.15" x="17.85" y="17.85" rx=".8" ry=".8"/></svg>