<svg id="sq1" xmlns="http://www.w3.org/2000/svg" viewBox="0 0 24 24">
  <polygon points="12 13.19 13.71 20 10.3 20 12 13.19"/>
  <polygon points="13.19 12 20 10.3 20 13.7 13.19 12"/>
  <polygon points="12 10.81 10.3 4.01 13.71 4.01 12 10.81"/>
  <polygon points="10.82 12 4 13.7 4 10.3 10.82 12"/>
  <path d="M12.89,11.11l1.9-7.07s.02-.04,.05-.04h3.97c.66,0,1.2,.54,1.2,1.2v4.02l-7.11,1.91"/>
  <path d="M11.11,11.12l-7.11-1.91V5.21c0-.66,.54-1.2,1.2-1.2h4.03l1.91,7.11"/>
  <path d="M12.89,12.89l1.91,7.11h4.01c.66,0,1.2-.54,1.2-1.2v-4.02l-7.11-1.9"/>
  <path d="M11.11,12.88l-7.11,1.91v4c0,.66,.54,1.2,1.2,1.2h4.03l1.91-7.11"/>
</svg>
