<?xml version="1.0" encoding="UTF-8"?>
<svg id="export1" xmlns="http://www.w3.org/2000/svg" viewBox="0 0 30 30">
  <defs>
    <style>
      .cls-1 {
        fill: #f2f200;
      }

      .cls-2 {
        fill: lime;
      }

      .cls-3 {
        fill: #0073e6;
      }

      .cls-4 {
        fill: #ffb300;
      }

      .cls-5 {
        fill: red;
      }

      .cls-6 {
        opacity: .24;
      }
    </style>
  </defs>
  <path class="cls-5" d="M30,22.5v1.52c0,1.03-.26,2-.72,2.85-.28,.51-.63,.98-1.04,1.39-1.09,1.09-2.58,1.76-4.24,1.76h-4v-10h8.94c.44,.81,.79,1.62,1.06,2.48Z"/>
  <rect class="cls-3" x="10" y="20.02" width="10.01" height="10"/>
  <path class="cls-2" d="M10,20.02v10H6C2.68,30.02,0,27.33,0,24.02v-4H4.26c-.89,.85-1.13,1.6-.73,2.23,1.03-.81,2.04-1.55,3.05-2.23h3.41Z"/>
  <g>
    <path class="cls-4" d="M10,10v5.01c-1.96,1.41-3.78,2.99-5.46,4.77-.08,.07-.16,.14-.23,.2l-.02,.02H0V10H10Z"/>
    <path class="cls-4" d="M10,17.99v2.01h-3.38s.02-.01,.03-.02c1.13-.75,2.24-1.42,3.35-1.99Z"/>
  </g>
  <path class="cls-5" d="M10-.02V9.98H0V5.98C0,2.66,2.68-.02,6-.02h4Z"/>
  <path class="cls-3" d="M20-.02V6.6c-.79,1.02-1.27,2.15-1.42,3.38H10V-.02h10.01Z"/>
  <g>
    <path class="cls-2" d="M29.74,4.19c-.65-.38-1.36-.64-2.12-.8-.25-.05-.5-.09-.76-.12-.23-.03-.48-.05-.71-.05-1.9-.01-3.73,.87-5.49,2.65-.23,.24-.45,.48-.65,.73V-.02h4c.25,0,.5,.02,.74,.05,.13,.01,.25,.03,.37,.06,.08,.01,.15,.02,.22,.04,.15,.03,.29,.07,.44,.12h.03c.18,.06,.36,.13,.54,.2,.21,.09,.42,.19,.62,.31,.13,.07,.26,.15,.39,.24,.01,.01,.02,.01,.03,.02,.11,.07,.22,.15,.32,.24,.09,.06,.17,.13,.25,.21,.12,.1,.23,.21,.34,.32,.28,.29,.54,.6,.76,.95,.08,.12,.15,.24,.22,.37,0,0,.01,.01,.02,.03,.08,.16,.17,.33,.24,.51,.07,.18,.14,.36,.2,.54Z"/>
    <path class="cls-2" d="M25.31,7.34c0,.35-.12,.65-.38,.9-.24,.24-.54,.37-.88,.37s-.65-.13-.9-.37c-.24-.25-.36-.55-.36-.9s.12-.64,.36-.89c.25-.25,.55-.37,.9-.37s.64,.12,.88,.37c.26,.25,.38,.55,.38,.89Z"/>
  </g>
  <path class="cls-4" d="M28.93,19.98h-8.92v-5.2c3.29,.25,5.28,.72,5.98,1.4,.56,.54,1.06,1.1,1.52,1.68,.04,.04,.08,.09,.11,.13,.5,.65,.93,1.31,1.31,1.99Z"/>
  <g>
    <path class="cls-1" d="M18.58,9.98c-.01,.13-.02,.25-.03,.37-3.09,1.22-5.94,2.77-8.55,4.65,0,0,0,0,0,.01v-5.03h8.59Z"/>
    <path class="cls-1" d="M20,14.78v5.2H10v-1.99s0-.01,0-.01c2.25-1.18,4.46-2.01,6.61-2.48,1.9-.42,2.92-.66,3.06-.75,.11,.01,.22,.02,.33,.03Z"/>
  </g>
  <g id="outer" class="cls-6">
    <path d="M28.94,20.02h-1.44v4c0,1.93-1.57,3.5-3.5,3.5H6c-1.93,0-3.5-1.57-3.5-3.5V5.98c0-1.93,1.57-3.5,3.5-3.5H24c.81,0,1.55,.27,2.14,.74,.23,0,.48,.02,.71,.05,.26,.03,.51,.07,.76,.12,.76,.16,1.47,.42,2.12,.8-.06-.18-.13-.36-.2-.54-.07-.18-.16-.35-.24-.51-.01-.02-.02-.03-.02-.03-.07-.13-.14-.25-.22-.37-.22-.35-.48-.66-.76-.95-.11-.12-.22-.23-.34-.32-.08-.08-.16-.15-.25-.21-.1-.09-.21-.17-.32-.24-.01-.01-.02-.01-.03-.02-.13-.09-.26-.17-.39-.24-.2-.12-.41-.22-.62-.31-.18-.07-.36-.14-.54-.2h-.03c-.15-.05-.29-.09-.44-.12-.07-.02-.14-.03-.22-.04-.12-.03-.24-.05-.37-.06-.24-.03-.49-.05-.74-.05H6C4.95-.02,3.99,.24,3.13,.7c-.51,.28-.98,.63-1.38,1.04C.67,2.83,0,4.33,0,5.98V24.02C0,27.33,2.68,30.02,6,30.02H24c1.66,0,3.15-.67,4.24-1.76,.41-.4,.76-.87,1.04-1.39,.46-.85,.72-1.82,.72-2.85v-1.52c-.27-.86-.62-1.67-1.06-2.48Zm-1.44-2.16v2.12h1.42c-.38-.68-.81-1.34-1.31-1.99-.03-.04-.07-.09-.11-.13Z"/>
  </g>
</svg>