<svg xmlns="http://www.w3.org/2000/svg" id="export1" viewBox="0 0 30 30"><defs><style>.cls-1{fill:#f2f200}.cls-2{fill:#0f0}.cls-3{fill:#0073e6}.cls-4{fill:#ffb300}.cls-5{fill:red}</style></defs><path d="M30 22.5v1.52a5.968 5.968 0 0 1-1.76 4.24A5.962 5.962 0 0 1 24 30.02h-4v-10h8.94c.44.81.79 1.62 1.06 2.48Z" class="cls-5"/><path d="M10 20.02h10.01v10H10z" class="cls-3"/><path d="M10 20.02v10H6c-3.32 0-6-2.69-6-6v-4h4.26c-.89.85-1.13 1.6-.73 2.23a51.09 51.09 0 0 1 3.05-2.23h3.41Z" class="cls-2"/><path d="M10 10v5.01a37.941 37.941 0 0 0-5.46 4.77l-.23.2-.02.02H0V10h10ZM10 17.99V20H6.62s.02-.01.03-.02c1.13-.75 2.24-1.42 3.35-1.99Z" class="cls-4"/><path d="M10-.02v10H0v-4c0-3.32 2.68-6 6-6h4Z" class="cls-5"/><path d="M20-.02V6.6c-.79 1.02-1.27 2.15-1.42 3.38H10v-10h10.01Z" class="cls-3"/><path d="M29.74 4.19a7.04 7.04 0 0 0-2.12-.8c-.25-.05-.5-.09-.76-.12-.23-.03-.48-.05-.71-.05-1.9-.01-3.73.87-5.49 2.65-.23.24-.45.48-.65.73V-.02h4c.25 0 .5.02.74.05.13.01.25.03.37.06.08.01.15.02.22.04.15.03.29.07.44.12h.03c.18.06.36.13.54.2.21.09.42.19.62.31.13.07.26.15.39.24.01.01.02.01.03.02.11.07.22.15.32.24.09.06.17.13.25.21.12.1.23.21.34.32a5.866 5.866 0 0 1 .98 1.32s.01.01.02.03c.08.16.17.33.24.51.07.18.14.36.2.54ZM25.31 7.34c0 .35-.12.65-.38.9-.24.24-.54.37-.88.37s-.65-.13-.9-.37c-.24-.25-.36-.55-.36-.9s.12-.64.36-.89c.25-.25.55-.37.9-.37s.64.12.88.37c.26.25.38.55.38.89Z" class="cls-2"/><path d="M28.93 19.98h-8.92v-5.2c3.29.25 5.28.72 5.98 1.4.56.54 1.06 1.1 1.52 1.68.04.04.08.09.11.13.5.65.93 1.31 1.31 1.99Z" class="cls-4"/><path d="m18.58 9.98-.03.37A39.173 39.173 0 0 0 10 15v.01-5.03h8.59ZM20 14.78v5.2H10v-2c2.25-1.18 4.46-2.01 6.61-2.48 1.9-.42 2.92-.66 3.06-.75l.33.03Z" class="cls-1"/><path id="outer" d="M28.94 20.02H27.5v4c0 1.93-1.57 3.5-3.5 3.5H6c-1.93 0-3.5-1.57-3.5-3.5V5.98c0-1.93 1.57-3.5 3.5-3.5h18c.81 0 1.55.27 2.14.74.23 0 .48.02.71.05.26.03.51.07.76.12.76.16 1.47.42 2.12.8-.06-.18-.13-.36-.2-.54-.07-.18-.16-.35-.24-.51-.01-.02-.02-.03-.02-.03a5.866 5.866 0 0 0-.98-1.32c-.11-.12-.22-.23-.34-.32-.08-.08-.16-.15-.25-.21-.1-.09-.21-.17-.32-.24-.01-.01-.02-.01-.03-.02-.13-.09-.26-.17-.39-.24-.2-.12-.41-.22-.62-.31-.18-.07-.36-.14-.54-.2h-.03c-.15-.05-.29-.09-.44-.12-.07-.02-.14-.03-.22-.04-.12-.03-.24-.05-.37-.06-.24-.03-.49-.05-.74-.05H6c-1.05 0-2.01.26-2.87.72-.51.28-.98.63-1.38 1.04A6.012 6.012 0 0 0 0 5.98v18.04c0 3.31 2.68 6 6 6h18c1.66 0 3.15-.67 4.24-1.76A5.968 5.968 0 0 0 30 24.02V22.5c-.27-.86-.62-1.67-1.06-2.48Zm-1.44-2.16v2.12h1.42c-.38-.68-.81-1.34-1.31-1.99-.03-.04-.07-.09-.11-.13Z" style="opacity:.24"/></svg>