<svg xmlns="http://www.w3.org/2000/svg" id="Layer_1" data-name="Layer 1" viewBox="0 0 90 30"><defs><style>.cls-1{fill:#f7f9fc}.cls-2{fill:#f2f200}.cls-3{fill:#0f0}.cls-4{fill:#0073e6}.cls-5{fill:#ffb300}.cls-6{fill:red}</style></defs><g id="rounded-transparent-expanded"><path d="M30.01 22.51v1.52a5.968 5.968 0 0 1-1.76 4.24 5.962 5.962 0 0 1-4.24 1.76h-4v-10h8.94c.44.81.79 1.62 1.06 2.48Z" class="cls-6"/><path d="M10 20.03h10.01v10H10z" class="cls-4"/><path d="M10 20.03v10H6c-3.32 0-6-2.69-6-6v-4h4.27c-.89.85-1.13 1.6-.73 2.23a51.09 51.09 0 0 1 3.05-2.23H10Z" class="cls-3"/><path d="M10 10.01v5.01a37.941 37.941 0 0 0-5.46 4.77l-.23.2-.02.02H0v-10h10ZM10 18v2.01H6.62s.02-.01.03-.02C7.78 19.24 8.89 18.57 10 18Z" class="cls-5"/><path d="M10-.01v10H0v-4c0-3.32 2.68-6 6-6h4Z" class="cls-6"/><path d="M20.01-.01v6.62c-.79 1.02-1.27 2.15-1.42 3.38H10v-10h10.01Z" class="cls-4"/><path d="M29.74 4.2a7.04 7.04 0 0 0-2.12-.8c-.25-.05-.5-.09-.76-.12-.23-.03-.48-.05-.71-.05-1.9-.01-3.73.87-5.49 2.65-.23.24-.45.48-.65.73V-.01h4c.25 0 .5.02.74.05.13.01.25.03.37.06.08.01.15.02.22.04.15.03.29.07.44.12h.03c.18.06.36.13.54.2.21.09.42.19.62.31.13.07.26.15.39.24.01.01.02.01.03.02.11.07.22.15.32.24.09.06.17.13.25.21.12.1.23.21.34.32a5.866 5.866 0 0 1 .98 1.32s.01.01.02.03c.08.16.17.33.24.51.07.18.14.36.2.54ZM25.31 7.35c0 .35-.12.65-.38.9-.24.24-.54.37-.88.37s-.65-.13-.9-.37c-.24-.25-.36-.55-.36-.9s.12-.64.36-.89c.25-.25.55-.37.9-.37s.64.12.88.37c.26.25.38.55.38.89Z" class="cls-3"/><path d="M28.93 19.99h-8.92v-5.2c3.29.25 5.28.72 5.98 1.4.56.54 1.06 1.1 1.52 1.68.04.04.08.09.11.13.5.65.93 1.31 1.31 1.99Z" class="cls-5"/><path d="m18.59 9.99-.03.37a39.173 39.173 0 0 0-8.55 4.65v.01-5.03h8.59ZM20.01 14.79v5.2H10v-2c2.25-1.18 4.46-2.01 6.61-2.48 1.9-.42 2.92-.66 3.06-.75l.33.03Z" class="cls-2"/><path id="outer" d="M28.95 20.03h-1.44v4c0 1.93-1.57 3.5-3.5 3.5H6c-1.93 0-3.5-1.57-3.5-3.5V5.99c0-1.93 1.57-3.5 3.5-3.5h18.01c.81 0 1.55.27 2.14.74.23 0 .48.02.71.05.26.03.51.07.76.12.76.16 1.47.42 2.12.8-.06-.18-.13-.36-.2-.54-.07-.18-.16-.35-.24-.51-.01-.02-.02-.03-.02-.03a5.866 5.866 0 0 0-.98-1.32c-.11-.12-.22-.23-.34-.32-.08-.08-.16-.15-.25-.21-.1-.09-.21-.17-.32-.24-.01-.01-.02-.01-.03-.02-.13-.09-.26-.17-.39-.24-.2-.12-.41-.22-.62-.31-.18-.07-.36-.14-.54-.2h-.03c-.15-.05-.29-.09-.44-.12-.07-.02-.14-.03-.22-.04-.12-.03-.24-.05-.37-.06-.24-.03-.49-.05-.74-.05H6c-1.04 0-2.01.26-2.86.72-.51.28-.98.63-1.38 1.04A5.98 5.98 0 0 0 0 5.99v18.04c0 3.31 2.68 6 6 6h18.01c1.66 0 3.15-.67 4.24-1.76a5.968 5.968 0 0 0 1.76-4.24v-1.52c-.27-.86-.62-1.67-1.06-2.48Zm-1.44-2.16v2.12h1.42c-.38-.68-.81-1.34-1.31-1.99-.03-.04-.07-.09-.11-.13Z" style="opacity:.24"/><path d="M49.96 1.94v2.47c-1.72-.84-3.31-1.27-4.76-1.27-1.86 0-3.42.6-4.69 1.8-1.27 1.2-1.91 2.67-1.91 4.42s.65 3.27 1.95 4.46c1.3 1.19 2.93 1.79 4.89 1.79 1.42 0 2.93-.45 4.52-1.34v2.5a9.893 9.893 0 0 1-4.71 1.16c-2.48 0-4.59-.84-6.35-2.51s-2.64-3.7-2.64-6.06.86-4.31 2.59-5.97C40.58 1.73 42.66.91 45.09.91c1.56 0 3.18.35 4.86 1.05ZM52.48 1.41h2.18v9.83c0 1.46.35 2.58 1.05 3.38s1.69 1.19 2.97 1.19 2.26-.37 2.97-1.1c.71-.73 1.06-1.76 1.06-3.09V1.41h2.18v10.05c0 1.96-.56 3.52-1.68 4.69-1.12 1.17-2.6 1.76-4.46 1.76s-3.42-.59-4.56-1.78c-1.14-1.19-1.71-2.94-1.71-5.26V1.41ZM68.39 1.39h2.54c1.66 0 3.02.36 4.08 1.08 1.05.72 1.58 1.64 1.58 2.74 0 1.35-.78 2.47-2.33 3.37 2.41.8 3.61 2.2 3.61 4.18 0 1.38-.62 2.5-1.86 3.34-1.24.85-2.91 1.27-4.99 1.27H68.4V1.39Zm2.16 1.93v4.73c1.21-.02 2.13-.25 2.77-.69.64-.44.96-1.05.96-1.83 0-.68-.29-1.22-.87-1.62-.58-.41-1.35-.61-2.32-.61-.21 0-.39 0-.54.02Zm0 6.63v5.47h.18c1.88 0 3.17-.3 3.85-.9.69-.6 1.03-1.22 1.03-1.84 0-.83-.38-1.49-1.15-1.98-.77-.49-1.82-.74-3.16-.74h-.74ZM80.76 1.39h8.86v2.18h-6.7v3.99h6.7v2.16h-6.7v5.5h6.7v2.16h-8.86V1.39ZM44.03 21.18v1.32c-.92-.45-1.76-.67-2.53-.67-.99 0-1.82.32-2.5.96-.68.64-1.01 1.42-1.01 2.35s.35 1.74 1.04 2.37c.69.63 1.56.95 2.6.95.76 0 1.56-.24 2.4-.71v1.33c-.77.41-1.6.61-2.5.61-1.32 0-2.44-.45-3.38-1.34s-1.4-1.97-1.4-3.23.46-2.29 1.38-3.18 2.03-1.32 3.32-1.32c.83 0 1.69.19 2.58.56ZM45.58 20.88h1.15v7.36h2.77v1.15h-3.92v-8.51ZM50.5 20.9h1.16v5.23c0 .77.19 1.37.56 1.8.37.42.9.63 1.58.63s1.2-.19 1.58-.58.56-.94.56-1.65V20.9h1.16v5.35c0 1.04-.3 1.87-.89 2.5s-1.39.93-2.37.93-1.82-.32-2.43-.95-.91-1.56-.91-2.8V20.9ZM58.96 20.88h1.35c.89 0 1.61.19 2.17.58.56.38.84.87.84 1.46 0 .72-.41 1.31-1.24 1.79 1.28.43 1.92 1.17 1.92 2.22 0 .74-.33 1.33-.99 1.78-.66.45-1.55.67-2.65.67h-1.4v-8.51Zm1.15 1.03v2.52c.64 0 1.13-.13 1.47-.37.34-.24.51-.56.51-.97 0-.36-.15-.65-.46-.86s-.72-.32-1.24-.32c-.11 0-.21 0-.29.01Zm0 3.53v2.91h.09c1 0 1.68-.16 2.05-.48.37-.32.55-.65.55-.98 0-.44-.21-.79-.61-1.05-.41-.26-.97-.39-1.68-.39h-.39ZM70.83 21.83l-.94.75c-.25-.26-.47-.45-.68-.58s-.49-.19-.88-.19c-.42 0-.76.09-1.02.28s-.39.43-.39.73c0 .26.11.49.34.68s.61.41 1.16.65c.55.23.97.45 1.28.66.3.2.55.43.75.67a2.464 2.464 0 0 1 .58 1.63c0 .71-.26 1.31-.77 1.81s-1.14.75-1.87.75-1.34-.19-1.89-.58c-.55-.39-.96-.97-1.26-1.75l1.16-.33c.42.96 1.07 1.44 1.94 1.44.42 0 .77-.13 1.06-.38.28-.25.42-.57.42-.96 0-.23-.07-.46-.22-.7a2.17 2.17 0 0 0-.55-.58c-.22-.15-.57-.32-1.04-.52-.48-.2-.84-.37-1.1-.54s-.48-.36-.67-.58-.32-.45-.41-.67c-.09-.22-.13-.46-.13-.71 0-.61.24-1.13.73-1.56.49-.43 1.08-.64 1.78-.64.46 0 .93.1 1.41.3.48.2.87.5 1.19.92Z" class="cls-4"/><path d="M74.82 20.54 81.11 27v-6.12h1.16v8.9l-6.29-6.44v6.04h-1.16v-8.85ZM83.76 20.88h5.74l-4.06 7.36h3.98v1.15h-5.86l4.04-7.34h-3.84v-1.16Z" class="cls-1"/></g></svg>